<svg width="24" height="25" viewBox="0 0 24 25" fill="none" xmlns="http://www.w3.org/2000/svg">
<path d="M18 10.1655C18 8.0438 17.1571 6.00896 15.6569 4.50867C14.1566 3.00838 12.1217 2.16553 10 2.16553C7.87827 2.16553 5.84344 3.00838 4.34315 4.50867C2.84285 6.00896 2 8.0438 2 10.1655C2 15.1585 7.539 20.3585 9.399 21.9645C9.57237 22.0946 9.78329 22.1647 10 22.1645M18 22.1655V19.1655M15 22.1654C14.7348 22.1654 14.4804 22.0601 14.2929 21.8725C14.1054 21.685 14 21.4306 14 21.1654V17.1654C14 17.0008 14.0406 16.8388 14.1182 16.6937C14.1958 16.5485 14.3081 16.4248 14.445 16.3334L17.445 14.3334C17.6093 14.2238 17.8025 14.1653 18 14.1653C18.1975 14.1653 18.3907 14.2238 18.555 14.3334L21.555 16.3334C21.6919 16.4248 21.8042 16.5485 21.8818 16.6937C21.9594 16.8388 22 17.0008 22 17.1654V21.1654C22 21.4306 21.8946 21.685 21.7071 21.8725C21.5196 22.0601 21.2652 22.1654 21 22.1654H15ZM13 10.1655C13 11.8224 11.6569 13.1655 10 13.1655C8.34315 13.1655 7 11.8224 7 10.1655C7 8.50867 8.34315 7.16553 10 7.16553C11.6569 7.16553 13 8.50867 13 10.1655Z" stroke="black" stroke-width="2" stroke-linecap="round" stroke-linejoin="round"/>
</svg>
